<svg width="8.500000in" height="11.000000in" viewBox="0 0 816.000000 1056.000000" xmlns="http://www.w3.org/2000/svg">
<defs>
<marker style="overflow:visible" id="Arrow1Sstart" refX="0.0" refY="0.0" orient="auto"> <path transform="scale(0.2) translate(6,0)" style="fill-rule:evenodd;fill:context-stroke;stroke:context-stroke;stroke-width:1.0pt" d="M 0.0,0.0 L 5.0,-5.0 L -12.5,0.0 L 5.0,5.0 L 0.0,0.0 z "/></marker>
</defs>
<circle cx="504" cy="432" r="5" stroke="purple" fill="purple" stroke-width="1" />
<circle cx="408" cy="528" r="5" stroke="brown" fill="brown" stroke-width="1" />
<circle cx="312" cy="432" r="5" stroke="orange" fill="orange" stroke-width="1" />
<line x1="436.118" x2="504" y1="364.118" y2="432" stroke="brown" stroke-width="5" marker-start="url(#Arrow1Sstart)" />
<line x1="312" x2="408" y1="432" y2="528" stroke="purple" stroke-width="5" marker-start="url(#Arrow1Sstart)" />
<line x1="504" x2="600" y1="432" y2="528" stroke="orange" stroke-width="5" marker-start="url(#Arrow1Sstart)" />
<g>
<line x1="504" x2="408" y1="528" y2="528" stroke="red" stroke-width="5" marker-start="url(#Arrow1Sstart)" />
<line x1="408" x2="408" y1="432" y2="528" stroke="green" stroke-width="5" marker-start="url(#Arrow1Sstart)" />
<text x="409.92" y="526.08">{a}</text>
</g>
<g>
<line x1="504" x2="504" y1="336" y2="432" stroke="red" stroke-width="5" marker-start="url(#Arrow1Sstart)" />
<line x1="408" x2="504" y1="432" y2="432" stroke="green" stroke-width="5" marker-start="url(#Arrow1Sstart)" />
<text x="505.92" y="430.08">{b}</text>
</g>
<g>
<line x1="696" x2="600" y1="528" y2="528" stroke="red" stroke-width="5" marker-start="url(#Arrow1Sstart)" />
<line x1="600" x2="600" y1="432" y2="528" stroke="green" stroke-width="5" marker-start="url(#Arrow1Sstart)" />
<text x="601.92" y="526.08">{c}</text>
</g>
</svg>
